<svg xmlns="http://www.w3.org/2000/svg" xmlns:xlink="http://www.w3.org/1999/xlink" version="1.1" x="0px" y="0px" viewBox="0 0 100 100" style="enable-background:new 0 0 100 100;" xml:space="preserve"><path d="M68.8710938,40.5083008l-1.0820312,6.3393555c-0.0644531,0.3754883,0.0898438,0.7548828,0.3984375,0.9780273  c0.3085938,0.2236328,0.7177734,0.2524414,1.0537109,0.074707l5.6640625-2.9902344l5.6640625,2.9902344  c0.1464844,0.0776367,0.3066406,0.1157227,0.4667969,0.1157227c0.2070312,0,0.4130859-0.0639648,0.5869141-0.1904297  c0.3085938-0.2231445,0.4628906-0.6025391,0.3984375-0.9780273l-1.0820312-6.3393555l4.5849609-4.4897461  c0.2724609-0.265625,0.3691406-0.6625977,0.2519531-1.0239258c-0.1181641-0.3618164-0.4306641-0.625-0.8066406-0.6801758  l-6.3339844-0.9238281L75.8027344,27.625c-0.3359375-0.6845703-1.4589844-0.6845703-1.7949219,0l-2.8330078,5.765625  l-6.3330078,0.9238281c-0.3759766,0.0551758-0.6884766,0.3183594-0.8066406,0.6796875  c-0.1171875,0.3618164-0.0205078,0.7587891,0.2519531,1.0244141L68.8710938,40.5083008z M71.984375,35.2939453  c0.3261719-0.0478516,0.6074219-0.2529297,0.7529297-0.5488281l2.1679688-4.4116211l2.1679688,4.4116211  C77.21875,35.0410156,77.5,35.2460938,77.8261719,35.2939453l4.8564453,0.7084961l-3.5166016,3.4433594  c-0.234375,0.2294922-0.3417969,0.559082-0.2861328,0.8828125l0.8291016,4.855957l-4.3369141-2.2895508  c-0.1455078-0.0771484-0.3066406-0.1157227-0.4667969-0.1157227s-0.3212891,0.0385742-0.4667969,0.1157227l-4.3369141,2.2895508  l0.8291016-4.855957c0.0556641-0.3237305-0.0517578-0.6533203-0.2861328-0.8828125l-3.515625-3.4433594L71.984375,35.2939453z"/><path d="M34.5703125,61.4819336l-5.7832031-0.84375l-2.5869141-5.2651367c-0.3359375-0.6845703-1.4589844-0.6845703-1.7949219,0  l-2.5869141,5.2651367l-5.7841797,0.84375c-0.3759766,0.0551758-0.6884766,0.3183594-0.8066406,0.6801758  c-0.1171875,0.3613281-0.0195312,0.7583008,0.2519531,1.0244141l4.1875,4.0991211l-0.9882812,5.7895508  c-0.0644531,0.3754883,0.0898438,0.7548828,0.3984375,0.9780273c0.3076172,0.2241211,0.7177734,0.2529297,1.0537109,0.074707  l5.171875-2.730957l5.171875,2.730957c0.1464844,0.0776367,0.3066406,0.1157227,0.4667969,0.1157227  c0.2070312,0,0.4130859-0.0639648,0.5869141-0.1904297c0.3085938-0.2231445,0.4628906-0.6025391,0.3984375-0.9780273  l-0.9882812-5.7895508L35.125,63.1860352c0.2724609-0.265625,0.3691406-0.6625977,0.2519531-1.0239258  C35.2587891,61.800293,34.9462891,61.5371094,34.5703125,61.4819336z M29.1650391,66.2231445  c-0.234375,0.2294922-0.3417969,0.559082-0.2861328,0.8828125l0.7353516,4.3061523l-3.8447266-2.0302734  c-0.1455078-0.0771484-0.3066406-0.1157227-0.4667969-0.1157227s-0.3212891,0.0385742-0.4667969,0.1157227l-3.8447266,2.0302734  l0.7353516-4.3061523c0.0556641-0.3237305-0.0517578-0.6533203-0.2861328-0.8833008l-3.1191406-3.0532227l4.3066406-0.6279297  c0.3261719-0.0478516,0.6074219-0.2529297,0.7529297-0.5488281l1.921875-3.9111328l1.921875,3.9111328  c0.1455078,0.2958984,0.4267578,0.5009766,0.7529297,0.5488281l4.3056641,0.6279297L29.1650391,66.2231445z"/><path d="M79.8544922,59.0341797c0.5527344,0,1-0.4477539,1-1s-0.4472656-1-1-1H77.125v-2.7294922c0-0.5522461-0.4472656-1-1-1  s-1,0.4477539-1,1v2.7294922h-2.7294922c-0.5527344,0-1,0.4477539-1,1s0.4472656,1,1,1H75.125v2.7290039  c0,0.5522461,0.4472656,1,1,1s1-0.4477539,1-1v-2.7290039H79.8544922z"/><path d="M50,49h-2.7294922v-2.7290039c0-0.5522461-0.4472656-1-1-1s-1,0.4477539-1,1V49h-2.7285156c-0.5527344,0-1,0.4477539-1,1  s0.4472656,1,1,1h2.7285156v2.7290039c0,0.5522461,0.4472656,1,1,1s1-0.4477539,1-1V51H50c0.5527344,0,1-0.4477539,1-1  S50.5527344,49,50,49z"/><path d="M52.7275391,22.0756836c0-0.5522461-0.4472656-1-1-1h-2.7294922v-2.7290039c0-0.5522461-0.4472656-1-1-1s-1,0.4477539-1,1  v2.7290039h-2.7285156c-0.5527344,0-1,0.4477539-1,1s0.4472656,1,1,1h2.7285156v2.7290039c0,0.5522461,0.4472656,1,1,1  s1-0.4477539,1-1v-2.7290039h2.7294922C52.2802734,23.0756836,52.7275391,22.6279297,52.7275391,22.0756836z"/><path d="M11,79.9243164h29V89c0,0.5522461,0.4472656,1,1,1h48c0.5527344,0,1-0.4477539,1-1V21.0756836c0-0.5522461-0.4472656-1-1-1  H60V11c0-0.5522461-0.4472656-1-1-1H11c-0.5527344,0-1,0.4477539-1,1v67.9243164C10,79.4765625,10.4472656,79.9243164,11,79.9243164  z M55.1481934,79.9243164L42,87.2438965v-7.3195801H55.1481934z M88,22.0756836V88H44.7526855l14.7336426-8.2021484  c0.0386963-0.0215454,0.0622559-0.0571289,0.0969238-0.0828247c0.057373-0.0423584,0.1125488-0.0828857,0.1595459-0.1362915  c0.0423584-0.0480347,0.0723877-0.1004028,0.1043701-0.1548462c0.0328369-0.055481,0.0646973-0.1085205,0.0864258-0.1702271  c0.0234375-0.06604,0.0316162-0.1328735,0.0407715-0.2023926C59.9801025,79.0078125,60,78.9693604,60,78.9243164V67.227356  c0.7039795,0.1710815,1.4084473,0.3419189,2.1025391,0.5158081c0.0820312,0.0205078,0.1630859,0.0297852,0.2441406,0.0297852  c0.4472656,0,0.8554688-0.3032227,0.96875-0.7573242c0.1347656-0.5356445-0.1914062-1.0786133-0.7265625-1.2128906  C61.7336426,65.5889282,60.8679199,65.3782349,60,65.1675415V22.0756836H88z M12,12h46v65.9243164H12V12z"/><path d="M34.9970703,55.7119141c-0.4052734-0.3769531-1.0371094-0.3515625-1.4130859,0.0537109  s-0.3515625,1.0380859,0.0537109,1.4130859c0.7285156,0.6748047,1.5341797,1.315918,2.3955078,1.9047852  c0.1728516,0.1181641,0.3691406,0.1748047,0.5634766,0.1748047c0.3193359,0,0.6328125-0.1523438,0.8261719-0.4350586  c0.3115234-0.4560547,0.1953125-1.078125-0.2607422-1.3901367C36.3818359,56.8989258,35.6533203,56.3198242,34.9970703,55.7119141z"/><path d="M43.0175781,60.4052734c-0.9365234-0.3647461-1.8154297-0.7426758-2.6123047-1.1240234  c-0.5-0.2373047-1.0957031-0.0273438-1.3339844,0.4711914c-0.2382812,0.4980469-0.0273438,1.0952148,0.4707031,1.3334961  c0.8417969,0.4023438,1.7666016,0.800293,2.7490234,1.1826172c0.1201172,0.046875,0.2421875,0.0688477,0.3632812,0.0688477  c0.4003906,0,0.7783203-0.2421875,0.9316406-0.6376953C43.7861328,61.1850586,43.5322266,60.6054688,43.0175781,60.4052734z"/><path d="M29.3066406,48.2211914c0.0546875,0,0.109375-0.0043945,0.1650391-0.0136719  c0.5449219-0.090332,0.9130859-0.6054688,0.8222656-1.1503906c-0.1474609-0.8881836-0.2246094-1.8115234-0.2285156-2.7456055  c-0.0019531-0.5522461-0.4648438-0.9682617-1.0039062-0.9956055c-0.5527344,0.0024414-0.9980469,0.4521484-0.9960938,1.0043945  c0.0048828,1.0405273,0.0908203,2.0717773,0.2558594,3.0649414C28.4023438,47.8745117,28.8261719,48.2211914,29.3066406,48.2211914z  "/><path d="M29.4746094,51.3408203c0.4052734,0.9443359,0.9042969,1.8598633,1.4824219,2.7207031  c0.1933594,0.2871094,0.5087891,0.4423828,0.8310547,0.4423828c0.1914062,0,0.3857422-0.0551758,0.5566406-0.1699219  c0.4580078-0.3081055,0.5800781-0.9291992,0.2724609-1.3876953c-0.5087891-0.7578125-0.9482422-1.5634766-1.3046875-2.3945312  c-0.21875-0.5083008-0.8076172-0.7421875-1.3134766-0.5244141C29.4912109,50.2451172,29.2568359,50.8330078,29.4746094,51.3408203z"/><path d="M49.4003906,62.4912109c-0.9423828-0.2651367-1.8662109-0.5390625-2.7685547-0.824707  c-0.5283203-0.1655273-1.0878906,0.1259766-1.2548828,0.6518555c-0.1669922,0.5268555,0.125,1.0883789,0.6513672,1.2553711  c0.921875,0.2915039,1.8671875,0.5712891,2.8291016,0.8422852c0.0908203,0.0258789,0.1826172,0.0380859,0.2724609,0.0380859  c0.4365234,0,0.8378906-0.2885742,0.9619141-0.7294922C50.2412109,63.1928711,49.9316406,62.640625,49.4003906,62.4912109z"/><path d="M55.9609375,64.1899414c-0.9453125-0.2304688-1.8886719-0.4633789-2.8242188-0.7016602  c-0.53125-0.1381836-1.0800781,0.1865234-1.2148438,0.7226562c-0.1367188,0.5351562,0.1865234,1.0795898,0.7226562,1.2158203  c0.9414062,0.2392578,1.890625,0.4741211,2.8417969,0.706543c0.0800781,0.019043,0.1591797,0.0283203,0.2382812,0.0283203  c0.4501953,0,0.859375-0.3061523,0.9707031-0.7626953C56.8261719,64.8623047,56.4970703,64.3212891,55.9609375,64.1899414z"/><path d="M75.7207031,70.0585938c-0.8359375-0.3989258-1.7646484-0.7939453-2.7607422-1.1743164  c-0.5185547-0.1962891-1.0947266,0.0625-1.2910156,0.578125c-0.1962891,0.5161133,0.0625,1.0942383,0.578125,1.2910156  c0.9462891,0.3603516,1.8242188,0.7338867,2.6103516,1.1098633c0.1396484,0.0664062,0.2861328,0.0976562,0.4306641,0.0976562  c0.3730469,0,0.7314453-0.2094727,0.9033203-0.5688477C76.4296875,70.894043,76.21875,70.296875,75.7207031,70.0585938z"/><path d="M69.2109375,67.609375c-0.9189453-0.2822266-1.8662109-0.5541992-2.8330078-0.8198242  c-0.5322266-0.1455078-1.0830078,0.1669922-1.2285156,0.699707c-0.1464844,0.5327148,0.1669922,1.0830078,0.6992188,1.2290039  c0.9472656,0.2597656,1.875,0.5268555,2.7763672,0.8032227c0.0976562,0.0297852,0.1962891,0.0444336,0.2929688,0.0444336  c0.4277344,0,0.8242188-0.2768555,0.9560547-0.7070312C70.0361328,68.3305664,69.7392578,67.7714844,69.2109375,67.609375z"/><path d="M81.5244141,74.3251953c-0.5996094-0.7705078-1.3701172-1.5087891-2.2900391-2.1948242  c-0.4423828-0.3300781-1.0693359-0.2387695-1.3994141,0.2041016c-0.3300781,0.4423828-0.2392578,1.0688477,0.2041016,1.3994141  c0.7753906,0.5786133,1.4179688,1.190918,1.9072266,1.8198242c0.1972656,0.253418,0.4921875,0.3857422,0.7900391,0.3857422  c0.2148438,0,0.4306641-0.0688477,0.6132812-0.2109375C81.7851562,75.3891602,81.8632812,74.7607422,81.5244141,74.3251953z"/><path d="M81.5820312,76.1254883c-0.5224609,0.1777344-0.8027344,0.7456055-0.625,1.2685547  c0.1503906,0.4423828,0.2470703,0.909668,0.2861328,1.3891602c0.0439453,0.5224609,0.4804688,0.9179688,0.9960938,0.9179688  c0.0273438,0,0.0546875-0.0009766,0.0830078-0.003418c0.5507812-0.0454102,0.9599609-0.5283203,0.9150391-1.0786133  c-0.0537109-0.6425781-0.1835938-1.2714844-0.3857422-1.8686523C82.6738281,76.2280273,82.1123047,75.9492188,81.5820312,76.1254883  z"/><path d="M31.5820312,33.1650391h6.5019531c0.5400391,0,0.9814453-0.4282227,0.9990234-0.9672852l0.2568359-7.9506836  c0.1191406-1.2490234-0.2988281-2.4995117-1.1464844-3.4306641c-0.8564453-0.9418945-2.0810547-1.4824219-3.3603516-1.4824219  c-1.2783203,0-2.5029297,0.5400391-3.359375,1.4819336c-0.8476562,0.9316406-1.265625,2.1821289-1.1503906,3.3691406  l0.2597656,8.012207C30.5996094,32.7368164,31.0419922,33.1650391,31.5820312,33.1650391z M32.953125,22.1621094  c0.9707031-1.0698242,2.7900391-1.0678711,3.7607422,0c0.4765625,0.5229492,0.7021484,1.1967773,0.6318359,1.9580078  l-0.2294922,7.0449219h-4.5664062l-0.2324219-7.1064453C32.2509766,23.3583984,32.4765625,22.6850586,32.953125,22.1621094z"/><path d="M39.2421875,37.2490234c0-0.5522461-0.4472656-1-1-1h-6.8183594c-0.5527344,0-1,0.4477539-1,1v1.7329102  c0,2.421875,1.9707031,4.3925781,4.3925781,4.3925781h0.0332031c2.421875,0,4.3925781-1.9707031,4.3925781-4.3925781V37.2490234z   M37.2421875,38.9819336c0,1.3193359-1.0732422,2.3925781-2.3925781,2.3925781h-0.0332031  c-1.3193359,0-2.3925781-1.0732422-2.3925781-2.3925781v-0.7329102h4.8183594V38.9819336z"/><path d="M19.4384766,29.7749023h6.5019531c0.5400391,0,0.9824219-0.4282227,0.9990234-0.9677734l0.2558594-7.9501953  c0.1191406-1.2495117-0.2988281-2.5-1.1464844-3.4316406c-0.8564453-0.9418945-2.0810547-1.4819336-3.359375-1.4819336  s-2.5029297,0.5400391-3.359375,1.4819336c-0.8476562,0.9316406-1.265625,2.1821289-1.1503906,3.3696289l0.2597656,8.012207  C18.4560547,29.3466797,18.8984375,29.7749023,19.4384766,29.7749023z M20.8095703,18.7709961  c0.9707031-1.0673828,2.7890625-1.0673828,3.7597656,0c0.4765625,0.5234375,0.7021484,1.1972656,0.6318359,1.9594727  l-0.2285156,7.0444336H20.40625l-0.2324219-7.1064453C20.1074219,19.9682617,20.3330078,19.2944336,20.8095703,18.7709961z"/><path d="M26.0986328,32.8583984h-6.8183594c-0.5527344,0-1,0.4477539-1,1v1.7329102  c0,2.421875,1.9707031,4.3925781,4.3925781,4.3925781h0.0332031c2.421875,0,4.3925781-1.9707031,4.3925781-4.3925781v-1.7329102  C27.0986328,33.3061523,26.6513672,32.8583984,26.0986328,32.8583984z M25.0986328,35.5913086  c0,1.3193359-1.0732422,2.3925781-2.3925781,2.3925781h-0.0332031c-1.3193359,0-2.3925781-1.0732422-2.3925781-2.3925781v-0.7329102  h4.8183594V35.5913086z"/></svg>